<svg xmlns="http://www.w3.org/2000/svg" version="1.1" xmlns:xlink="http://www.w3.org/1999/xlink" width="512" height="512" x="0" y="0" viewBox="0 0 512 512" style="enable-background:new 0 0 512 512" xml:space="preserve" class=""><rect width="512" height="512" rx="102.4" ry="102.4" fill="#529c47" shape="rounded" transform="matrix(0.81,0,0,0.81,48.639999999999986,48.639999999999986)"></rect><g transform="matrix(0.7,0,0,0.7,76.80000000000001,76.80000457763674)"><path d="M488 248h-32v-18.8a103.905 103.905 0 0 0 24 2.8h8v-16h-8c-48.523 0-88-39.477-88-88a8 8 0 0 0-8-8h-32a8 8 0 0 0-8 8c0 48.523-39.477 88-88 88s-88-39.477-88-88a8 8 0 0 0-8-8h-32a8 8 0 0 0-8 8c0 48.523-39.477 88-88 88h-8v16h8c8.258 0 16.293-.973 24-2.8V248H24a8 8 0 0 0-8 8v32a8 8 0 0 0 8 8h96v32a8 8 0 0 0-7.59 5.47l-16 48A7.999 7.999 0 0 0 104 392h80a8 8 0 0 0 7.59-10.53l-16-48A8 8 0 0 0 168 328v-32h176v32a8 8 0 0 0-7.59 5.47l-16 48A7.999 7.999 0 0 0 328 392h80a8 8 0 0 0 7.59-10.53l-16-48A8 8 0 0 0 392 328v-32h96a8 8 0 0 0 8-8v-32a8 8 0 0 0-8-8zm-48 0h-16v-32.398a103.829 103.829 0 0 0 16 8.393zm-32-45.026V248h-16v-64.637a104.758 104.758 0 0 0 16 19.61zm-64-19.611V248h-16v-45.026a104.758 104.758 0 0 0 16-19.611zM200 248v-32.398a103.832 103.832 0 0 0 16 8.393V248zm32-18.8a103.505 103.505 0 0 0 16 2.495V248h-16zm32 2.495a103.503 103.503 0 0 0 16-2.495V248h-16zm32-7.7a103.834 103.834 0 0 0 16-8.393V248h-16zm-112-21.021V248h-16v-64.637a104.758 104.758 0 0 0 16 19.61zm-64-19.611V248h-16v-45.026a104.758 104.758 0 0 0 16-19.611zm-48 40.632a103.834 103.834 0 0 0 16-8.393V248H72zM32 280v-16h88v16zm140.9 96h-57.8l10.666-32h36.468zM136 328V136h16v192zm32-48v-16h176v16zm228.9 96h-57.8l10.666-32h36.468zM360 328V136h16v192zm120-48h-88v-16h88z" fill="#ffffff" opacity="1" data-original="#000000" class=""></path></g></svg>